<?xml version="1.0" standalone="no"?>
<!DOCTYPE svg PUBLIC "-//W3C//DTD SVG 20010904//EN"
 "http://www.w3.org/TR/2001/REC-SVG-20010904/DTD/svg10.dtd">
<svg version="1.0" xmlns="http://www.w3.org/2000/svg"
 width="800.000000pt" height="800.000000pt" viewBox="0 0 800.000000 800.000000"
 preserveAspectRatio="xMidYMid meet">
<metadata>
Created by potrace 1.11, written by Peter Selinger 2001-2013
</metadata>
<g transform="translate(0.000000,800.000000) scale(0.100000,-0.100000)"
fill="#000000" stroke="none">
<path d="M984 7783 c7 -12 -12 -18 -38 -14 -4 1 -13 -2 -20 -7 -6 -5 -23 -9
-38 -8 -14 1 -25 -1 -22 -5 5 -9 -25 -20 -37 -13 -5 3 -9 0 -9 -7 0 -7 -3 -9
-7 -6 -3 4 -13 1 -21 -6 -13 -10 -15 -9 -8 3 5 10 3 9 -6 -2 -8 -9 -26 -20
-41 -23 -15 -4 -27 -11 -27 -15 0 -4 -7 -11 -16 -14 -12 -5 -14 -3 -8 7 5 7 1
4 -8 -6 -10 -11 -18 -16 -18 -12 0 3 -7 -1 -16 -9 -20 -21 -48 -21 -40 0 3 9
2 12 -5 9 -5 -4 -8 -12 -6 -18 6 -18 -51 -60 -74 -54 -15 4 -17 2 -11 -6 7 -8
2 -18 -16 -31 -27 -19 -27 -19 -12 0 10 13 8 12 -6 -2 -12 -13 -25 -20 -28
-17 -3 4 -6 0 -6 -8 0 -18 -62 -70 -77 -65 -7 3 -10 0 -8 -7 3 -7 -6 -24 -20
-39 -28 -32 -37 -35 -28 -10 3 9 3 14 -1 11 -4 -4 -9 -17 -11 -30 -3 -13 -11
-29 -20 -35 -8 -6 -12 -14 -8 -17 3 -4 1 -7 -5 -7 -5 0 -13 6 -16 13 -3 6 -4
3 -1 -9 6 -22 -47 -99 -59 -86 -4 3 -4 -1 -1 -9 4 -10 -2 -20 -17 -28 -18 -9
-19 -10 -3 -6 17 5 17 3 -4 -13 -15 -13 -21 -24 -16 -32 6 -10 4 -12 -10 -6
-15 5 -16 4 -5 -9 11 -14 7 -19 -12 -16 -4 0 -4 -7 -1 -17 6 -15 5 -16 -13 -2
-17 14 -18 14 -6 -1 13 -17 6 -53 -8 -44 -5 3 -7 -6 -4 -19 2 -14 -1 -28 -7
-32 -8 -4 -9 -3 -5 4 11 18 0 14 -15 -5 -10 -11 -10 -14 -2 -9 14 8 18 -15 6
-28 -4 -3 -8 -13 -10 -21 -5 -27 -11 -50 -13 -52 -2 -2 -4 -12 -5 -23 -1 -11
-3 -21 -5 -22 -1 -2 -4 -12 -6 -23 -3 -11 -6 -24 -7 -30 -1 -5 -7 -16 -11 -24
-6 -10 -5 -12 2 -7 7 4 12 2 12 -3 0 -6 -4 -11 -9 -11 -5 0 -8 -90 -8 -200 0
-110 4 -200 8 -200 4 0 6 -9 4 -20 -2 -11 1 -20 7 -20 6 0 5 -7 -3 -17 -10
-11 -10 -14 -1 -9 6 4 12 3 12 -1 0 -5 -6 -15 -12 -22 -11 -11 -10 -13 4 -8
12 4 18 1 19 -8 1 -8 2 -21 3 -27 1 -7 -2 -18 -7 -25 -5 -8 -1 -16 13 -23 12
-6 19 -14 16 -17 -3 -4 0 -13 7 -21 8 -11 8 -14 0 -9 -6 4 -15 3 -18 -3 -4 -6
-3 -10 2 -9 4 1 15 1 23 0 13 -1 13 -2 0 -11 -10 -6 -11 -10 -2 -10 6 0 12 -7
12 -15 0 -8 5 -15 10 -15 7 0 7 -6 0 -20 -8 -16 -8 -18 4 -14 21 8 49 -48 33
-66 -7 -7 -7 -10 -2 -8 6 3 16 0 23 -8 7 -8 10 -14 5 -14 -4 0 2 -7 13 -16 10
-8 14 -13 8 -10 -6 3 -11 -1 -11 -8 0 -8 6 -12 12 -9 7 2 15 -3 19 -12 4 -10
2 -14 -6 -9 -7 4 -8 3 -4 -4 4 -7 14 -12 23 -12 9 0 13 -6 10 -15 -4 -8 -2
-17 4 -20 5 -4 6 -11 3 -17 -4 -7 -2 -8 5 -4 9 6 9 12 -1 24 -12 15 -11 16 4
3 10 -7 15 -17 12 -22 -3 -5 0 -9 5 -9 6 0 11 -10 11 -22 0 -19 2 -20 10 -8 8
13 10 12 10 -3 0 -10 5 -15 10 -12 6 3 10 -1 10 -9 0 -9 4 -16 9 -16 5 0 11
-8 14 -19 2 -10 17 -25 33 -32 16 -8 34 -25 40 -37 8 -17 13 -20 18 -10 3 7 5
4 2 -8 -2 -12 2 -21 10 -21 7 0 11 5 8 11 -3 6 1 3 9 -6 8 -10 19 -18 25 -18
5 0 12 -7 16 -15 3 -8 12 -15 21 -15 14 0 20 -12 16 -34 -1 -5 5 -4 13 3 12
10 17 9 25 -7 6 -11 7 -23 3 -27 -4 -5 -1 -5 6 -1 7 4 9 12 6 18 -4 6 2 6 15
-1 11 -7 21 -14 21 -17 0 -3 -5 -2 -12 2 -7 4 -8 3 -4 -5 4 -7 13 -10 19 -8 7
2 18 -3 25 -12 8 -9 10 -10 7 -3 -6 12 69 -22 85 -38 3 -3 12 -5 20 -5 9 0 14
-8 13 -19 -1 -13 2 -15 10 -7 15 15 40 14 31 -1 -5 -8 -2 -9 11 -4 11 4 26 0
38 -11 11 -10 17 -12 13 -6 -5 9 -2 11 8 7 9 -3 16 -10 16 -14 0 -4 7 -11 16
-14 15 -6 15 -4 3 10 -13 16 -12 16 9 5 12 -6 22 -9 22 -6 0 3 15 -1 33 -8 18
-8 45 -13 61 -11 24 2 26 1 14 -13 -12 -15 -11 -15 9 -5 15 8 24 9 28 2 4 -7
11 -8 18 -2 17 14 56 9 67 -8 5 -8 10 -10 10 -5 0 6 23 10 53 10 28 -1 60 4
70 9 13 8 20 7 27 -4 6 -10 10 -11 10 -2 0 6 5 12 11 12 5 0 8 -4 4 -10 -3 -5
6 -3 20 4 15 8 41 13 60 12 18 -1 31 2 29 6 -2 3 2 9 8 11 10 4 9 8 -2 16 -8
6 -11 11 -6 11 6 0 1 7 -10 15 -10 8 -14 15 -9 15 6 0 5 4 -2 8 -24 15 -101
141 -90 146 7 2 4 5 -5 5 -9 1 -20 6 -24 13 -4 6 -3 8 3 5 5 -3 10 0 10 8 0 8
-3 14 -6 13 -27 -3 -33 3 -21 17 7 9 10 18 6 22 -3 3 -6 1 -6 -5 0 -17 -17
-15 -24 4 -4 10 -2 13 6 8 7 -4 8 -3 4 4 -4 7 -13 12 -19 12 -7 1 -35 36 -63
80 -40 60 -49 81 -40 91 8 8 8 10 0 6 -12 -7 -40 19 -46 42 -2 7 -14 25 -27
38 -14 14 -21 32 -18 43 3 12 0 17 -8 14 -7 -3 -16 0 -21 7 -5 8 -3 10 7 5 8
-4 6 -1 -5 8 -10 8 -15 20 -10 27 5 8 3 10 -6 4 -10 -6 -12 -4 -7 8 4 12 2 14
-11 10 -9 -3 -14 -3 -10 1 4 5 -4 20 -18 34 -21 24 -28 37 -22 45 1 1 -11 15
-26 30 -18 18 -26 35 -23 47 3 12 0 17 -8 13 -16 -6 -39 33 -31 52 3 9 0 12
-9 9 -15 -6 -39 31 -30 46 3 5 0 12 -6 16 -8 5 -10 2 -4 -7 4 -8 -4 0 -19 16
-14 17 -25 34 -26 38 0 5 -7 16 -16 24 -8 9 -13 24 -11 34 3 11 0 16 -8 13 -7
-3 -16 0 -21 7 -5 8 -3 10 7 5 8 -4 6 -1 -5 8 -10 8 -15 20 -10 27 5 8 3 10
-6 4 -10 -6 -12 -4 -7 8 4 12 2 14 -10 10 -10 -4 -14 -2 -10 4 4 6 0 14 -9 17
-9 4 -14 13 -10 21 3 9 -1 15 -10 15 -10 0 -14 6 -11 15 4 8 1 17 -5 21 -7 5
-8 2 -3 -6 5 -9 4 -11 -4 -6 -6 4 -9 12 -6 17 4 5 0 12 -8 15 -9 3 -13 14 -11
27 2 12 2 16 -2 9 -3 -6 -10 -9 -15 -6 -6 3 -5 11 2 20 10 12 9 13 -5 8 -9 -4
-16 -1 -16 6 0 7 -8 19 -17 27 -12 10 -13 12 -3 8 8 -4 6 1 -5 10 -11 9 -19
23 -17 31 2 8 -1 13 -5 12 -4 -2 -9 1 -10 6 -1 5 -7 13 -15 18 -10 8 -10 9 2
5 8 -2 14 -10 12 -17 -2 -10 0 -11 11 -2 8 7 17 9 20 5 4 -3 7 -1 7 6 0 8 -7
11 -15 7 -8 -3 -15 -1 -15 4 0 15 37 12 43 -2 4 -10 6 -10 6 0 1 6 6 12 12 12
5 0 7 -6 3 -12 -6 -10 -4 -10 7 -2 20 14 45 11 41 -6 -3 -11 1 -10 16 3 22 20
37 23 26 5 -6 -10 -5 -10 7 -1 16 13 81 15 73 2 -2 -4 0 -11 6 -14 6 -4 9 -1
8 6 -4 16 123 20 134 4 5 -6 8 -5 8 4 0 11 3 11 17 0 11 -10 14 -10 9 -1 -4 7
-1 12 9 12 9 0 14 -4 10 -9 -3 -5 0 -13 6 -17 7 -4 9 -3 5 4 -3 6 -1 14 5 18
6 3 15 0 20 -7 6 -10 9 -11 9 -1 0 6 9 12 21 12 11 0 18 -4 14 -9 -3 -5 -1
-13 5 -16 6 -4 9 -1 8 6 -2 8 9 13 32 13 26 1 34 -3 32 -14 -3 -11 1 -11 16 3
22 20 37 23 26 5 -6 -10 -5 -10 7 -1 16 13 81 15 73 2 -2 -4 0 -11 6 -14 6 -4
9 -1 8 6 -4 16 123 20 134 4 5 -6 8 -5 8 4 0 11 3 11 17 0 11 -10 14 -10 9 -1
-4 7 -1 12 9 12 9 0 14 -4 10 -9 -3 -5 0 -13 6 -17 7 -4 9 -3 5 4 -3 6 -1 14
5 18 6 3 15 0 20 -7 6 -10 9 -11 9 -1 0 6 9 12 21 12 11 0 18 -4 14 -9 -3 -5
-1 -13 5 -16 6 -4 9 -1 8 6 -2 8 9 13 32 13 26 1 34 -3 32 -14 -3 -11 1 -11
16 3 22 20 37 23 26 5 -6 -10 -5 -10 7 -1 16 13 81 15 73 2 -2 -4 0 -11 6 -14
6 -4 9 -1 8 6 -4 16 123 20 134 4 5 -6 8 -5 8 4 0 11 3 11 17 0 11 -10 14 -10
9 -1 -4 7 -1 12 9 12 9 0 14 -4 10 -9 -3 -5 0 -13 6 -17 7 -4 9 -3 5 4 -3 6
-1 14 5 18 6 3 15 0 20 -7 6 -10 9 -11 9 -1 0 6 9 12 21 12 11 0 18 -4 14 -9
-3 -5 -1 -13 5 -16 6 -4 9 -1 8 6 -4 16 83 20 94 4 5 -6 8 -5 8 4 0 9 4 10 13
4 15 -13 47 -24 47 -17 0 2 -10 9 -22 14 -20 7 -17 8 14 8 21 -1 35 -5 32 -9
-2 -4 0 -11 6 -14 6 -4 9 -1 8 6 -4 16 123 20 134 4 5 -6 8 -5 8 4 0 11 3 11
17 0 11 -10 14 -10 9 -1 -8 14 19 12 44 -2 8 -5 12 -6 8 -1 -4 4 2 16 14 26
11 11 16 19 11 19 -16 0 -25 62 -11 72 9 5 8 8 -4 8 -10 0 -18 5 -18 11 0 5 4
8 8 5 5 -3 9 1 9 8 0 8 -6 12 -12 10 -6 -3 -12 2 -12 10 0 8 5 12 11 9 6 -4 3
3 -7 14 -14 16 -15 22 -5 26 8 3 5 6 -6 6 -11 1 -16 4 -13 8 4 3 1 13 -6 21
-10 13 -9 14 3 7 9 -5 7 1 -5 15 -11 13 -15 20 -8 17 6 -4 15 -2 19 5 4 7 3
10 -1 5 -12 -10 -45 22 -45 45 0 10 -5 18 -11 18 -5 0 -8 4 -4 9 3 5 -1 16
-10 24 -8 8 -16 21 -17 28 -2 8 -13 22 -25 31 -13 12 -20 26 -18 39 3 15 0 19
-11 15 -8 -3 -13 -2 -10 2 2 4 -9 18 -25 31 -25 20 -27 26 -17 44 10 19 9 20
-3 10 -12 -10 -28 1 -86 56 -40 38 -75 66 -78 63 -3 -4 -3 1 0 10 5 13 2 16
-14 13 -13 -2 -27 5 -39 18 -9 12 -24 23 -32 25 -8 2 -17 7 -20 10 -10 14 -44
37 -37 25 5 -8 1 -8 -17 0 -17 8 -21 14 -13 20 7 5 3 7 -11 4 -18 -4 -22 -2
-18 10 5 13 4 14 -9 3 -10 -8 -15 -9 -15 -1 0 6 -9 11 -21 11 -11 0 -27 7 -36
15 -8 8 -19 13 -24 9 -6 -3 -16 0 -24 6 -8 7 -15 9 -15 4 0 -4 -7 1 -16 12 -8
10 -13 13 -9 7 3 -7 1 -13 -4 -13 -6 0 -11 5 -11 12 0 6 -3 8 -7 5 -3 -4 -17
0 -31 9 -13 9 -21 11 -18 5 11 -17 -15 -13 -37 7 -11 9 -17 11 -13 5 4 -7 3
-13 -2 -13 -6 0 -13 7 -16 16 -4 9 -11 12 -18 7 -18 -11 -38 -13 -38 -3 0 12
-469 10 -476 -1 -3 -6 -12 -5 -22 3 -12 10 -14 10 -8 1z"/>
<path d="M537 7613 c-10 -9 -9 -23 1 -23 5 0 9 7 9 15 0 17 -1 18 -10 8z"/>
<path d="M2130 7496 c0 -2 8 -10 18 -17 15 -13 16 -12 3 4 -13 16 -21 21 -21
13z"/>
<path d="M2170 7456 c0 -2 7 -9 15 -16 9 -7 15 -8 15 -2 0 5 -7 12 -15 16 -8
3 -15 4 -15 2z"/>
<path d="M220 7300 c-9 -6 -10 -10 -3 -10 6 0 15 5 18 10 8 12 4 12 -15 0z"/>
<path d="M196 7265 c-11 -8 -15 -15 -9 -15 6 0 16 7 23 15 16 19 11 19 -14 0z"/>
<path d="M716 6822 c-2 -4 4 -8 14 -8 10 0 16 4 14 8 -3 4 -9 8 -14 8 -5 0
-11 -4 -14 -8z"/>
<path d="M1196 6822 c-2 -4 4 -8 14 -8 10 0 16 4 14 8 -3 4 -9 8 -14 8 -5 0
-11 -4 -14 -8z"/>
<path d="M1676 6822 c-2 -4 4 -8 14 -8 10 0 16 4 14 8 -3 4 -9 8 -14 8 -5 0
-11 -4 -14 -8z"/>
<path d="M815 6380 c3 -5 8 -10 11 -10 2 0 4 5 4 10 0 6 -5 10 -11 10 -5 0 -7
-4 -4 -10z"/>
<path d="M1514 6296 c-3 -8 8 -27 25 -44 17 -16 31 -36 31 -45 0 -9 4 -19 10
-22 6 -4 7 1 3 12 -5 14 0 12 21 -7 18 -16 25 -31 22 -44 -4 -14 -2 -16 6 -8
9 9 18 6 35 -10 13 -12 23 -28 23 -36 0 -9 3 -13 6 -9 4 3 13 0 20 -8 15 -15
19 -29 6 -21 -5 3 -9 -2 -9 -10 0 -10 4 -11 11 -4 17 17 29 11 23 -10 -3 -11
-1 -18 3 -15 5 3 10 2 13 -2 2 -5 2 -1 0 7 -2 9 7 4 22 -11 14 -14 27 -35 28
-47 0 -11 5 -18 9 -16 5 3 5 11 1 17 -4 7 1 6 11 -2 13 -11 14 -16 4 -22 -10
-7 -9 -9 4 -9 9 0 38 -19 63 -43 34 -32 44 -49 39 -63 -5 -16 -4 -17 6 -4 9
11 13 12 17 2 2 -6 10 -9 16 -5 6 4 8 0 4 -10 -4 -11 -2 -14 7 -11 8 3 17 0
22 -7 4 -8 3 -10 -4 -5 -7 4 -12 5 -12 1 0 -3 11 -10 25 -15 14 -5 25 -15 25
-22 0 -9 -3 -9 -11 2 -9 13 -10 13 -6 0 2 -8 11 -14 21 -12 9 2 16 -3 16 -10
0 -7 10 -18 23 -23 12 -6 21 -18 21 -27 -1 -9 4 -14 10 -12 7 3 20 -10 29 -28
10 -18 15 -24 12 -14 -5 16 -3 17 10 6 9 -7 13 -20 10 -29 -3 -8 -3 -12 1 -8
4 4 13 -1 21 -11 10 -11 12 -12 8 -2 -4 8 0 6 9 -4 8 -10 13 -23 10 -27 -3 -5
1 -6 9 -3 8 3 20 -2 27 -11 11 -13 10 -15 -6 -10 -10 3 -4 -2 14 -12 18 -9 31
-22 28 -29 -2 -6 3 -11 12 -10 9 0 21 -9 27 -21 5 -13 14 -23 20 -23 19 -1 67
-59 69 -83 0 -14 5 -23 9 -20 5 3 6 12 3 20 -3 8 -1 11 5 8 6 -4 14 -18 19
-31 6 -14 18 -28 27 -31 10 -4 27 -16 38 -26 11 -11 13 -17 5 -13 -9 5 -9 2 2
-7 10 -8 15 -17 11 -21 -4 -4 1 -4 12 0 14 6 17 4 12 -9 -4 -12 -2 -14 10 -10
10 4 14 2 9 -5 -3 -6 3 -13 15 -17 11 -4 18 -13 16 -20 -3 -7 1 -12 11 -11 9
0 21 -9 27 -21 5 -13 14 -23 20 -23 19 -1 67 -59 69 -83 0 -14 5 -23 9 -20 5
3 6 12 3 20 -3 8 -1 11 5 8 6 -4 14 -18 19 -31 6 -14 18 -28 27 -31 10 -4 27
-16 38 -26 11 -11 14 -17 8 -13 -7 4 -13 5 -13 1 0 -3 11 -10 25 -15 27 -10
50 -54 39 -72 -5 -7 -2 -8 5 -4 7 5 10 15 7 23 -3 8 -1 11 5 8 6 -4 14 -18 19
-31 6 -14 18 -28 27 -31 10 -4 27 -16 38 -26 11 -11 13 -17 5 -13 -9 5 -9 2 2
-7 10 -8 15 -17 11 -21 -4 -4 0 -4 8 -1 9 3 22 -1 29 -10 11 -13 10 -15 -6
-10 -10 3 -4 -2 14 -12 18 -9 31 -22 28 -29 -2 -6 3 -11 12 -10 9 0 21 -9 27
-21 5 -13 14 -23 20 -23 19 -1 67 -59 69 -83 0 -14 5 -23 9 -20 5 3 6 12 3 20
-3 8 -1 11 5 8 6 -4 14 -18 19 -31 6 -14 18 -28 27 -31 23 -9 48 -34 56 -55 3
-9 22 -24 41 -33 20 -10 33 -21 30 -26 -3 -5 3 -9 13 -9 15 0 16 -2 3 -10 -13
-8 -12 -10 3 -10 23 0 107 -82 107 -104 0 -9 5 -16 11 -16 5 0 7 5 3 12 -5 7
-3 8 5 4 7 -5 10 -15 7 -23 -3 -8 -2 -12 3 -9 4 3 32 -15 60 -41 37 -33 48
-49 39 -55 -10 -5 -8 -8 5 -8 18 0 56 -29 40 -31 -4 0 3 -4 15 -10 13 -5 26
-18 29 -29 3 -11 9 -18 13 -15 4 2 21 -11 38 -30 20 -22 27 -35 19 -39 -7 -2
-4 -5 6 -5 18 -1 56 -30 40 -32 -4 0 3 -4 15 -10 13 -5 26 -18 29 -29 3 -11 9
-18 13 -15 11 7 121 -115 114 -126 -3 -5 1 -6 9 -3 8 3 18 0 23 -7 4 -8 3 -10
-4 -5 -7 4 -12 2 -12 -3 0 -6 7 -11 15 -11 21 0 105 -83 105 -104 0 -9 5 -16
11 -16 5 0 7 5 3 12 -5 7 -3 8 5 4 7 -5 10 -15 7 -23 -3 -8 -2 -12 3 -9 4 3
32 -15 60 -41 37 -33 48 -49 39 -55 -10 -5 -8 -8 5 -8 21 0 49 -24 40 -34 -4
-3 0 -6 9 -6 22 0 51 -36 42 -52 -4 -7 -4 -10 1 -6 12 11 47 -12 41 -28 -3 -7
-2 -13 2 -13 21 3 33 -3 48 -26 17 -26 28 -88 13 -80 -4 3 -11 1 -14 -5 -4 -6
-1 -9 6 -8 6 2 14 -3 17 -11 3 -10 0 -11 -9 -5 -11 6 -12 5 -2 -7 15 -19 14
-81 -1 -72 -6 4 -5 -1 3 -10 11 -14 11 -17 0 -17 -11 0 -11 -2 0 -9 12 -8 13
-14 3 -36 -9 -19 -9 -24 -1 -19 8 5 9 3 3 -7 -13 -21 -14 -40 -2 -33 6 4 8 1
6 -7 -3 -8 -12 -13 -19 -11 -9 2 -8 -3 4 -16 18 -20 23 -37 8 -27 -5 3 -13 1
-16 -5 -4 -6 -1 -9 7 -8 20 5 21 -42 1 -65 -12 -15 -13 -18 -2 -9 14 10 16 8
17 -20 0 -18 -7 -42 -16 -53 -14 -16 -14 -17 -1 -7 14 10 16 8 17 -20 0 -18
-7 -42 -16 -53 -14 -16 -14 -17 -1 -7 14 10 16 8 17 -20 0 -18 -7 -42 -16 -53
-14 -16 -14 -17 -1 -7 14 10 16 8 17 -20 0 -18 -7 -42 -16 -53 -14 -16 -14
-17 -1 -7 14 10 16 8 17 -20 0 -18 -7 -42 -16 -53 -14 -16 -14 -17 -1 -7 14
10 16 8 17 -20 0 -18 -7 -42 -16 -53 -14 -16 -14 -17 -1 -7 14 10 16 8 17 -20
0 -18 -7 -42 -16 -53 -15 -17 -15 -18 -1 -7 14 11 17 9 17 -13 0 -13 -4 -22
-9 -20 -4 3 -11 1 -14 -5 -4 -6 -1 -9 7 -8 7 2 13 -4 13 -12 0 -8 -7 -14 -15
-12 -11 3 -11 -1 3 -16 18 -20 23 -37 8 -27 -5 3 -13 1 -16 -5 -4 -6 -1 -9 5
-8 16 4 23 -41 9 -58 -8 -10 -8 -18 -1 -27 14 -17 12 -78 -2 -70 -6 3 -5 0 1
-8 15 -15 18 -33 5 -25 -5 3 -9 -1 -9 -9 0 -8 4 -12 9 -9 11 7 10 -3 -3 -28
-9 -16 -8 -19 2 -13 8 6 10 4 3 -6 -13 -21 -14 -40 -2 -33 6 4 8 1 6 -7 -3 -8
-12 -13 -19 -11 -9 2 -8 -3 4 -16 18 -20 23 -37 8 -27 -5 3 -13 1 -16 -5 -4
-6 -1 -9 7 -8 7 2 14 -8 16 -21 3 -17 0 -21 -10 -16 -10 6 -11 5 -1 -6 15 -15
18 -33 5 -25 -5 3 -9 -1 -9 -9 0 -8 4 -12 9 -9 11 7 10 -3 -3 -28 -9 -16 -8
-19 2 -13 8 6 10 4 3 -6 -11 -19 -14 -40 -4 -34 12 7 7 -79 -5 -87 -6 -5 -5
-8 3 -8 6 0 12 -5 12 -11 0 -5 -4 -8 -8 -5 -5 3 -9 -1 -9 -9 0 -8 4 -12 9 -9
13 8 10 -10 -4 -25 -10 -11 -10 -13 0 -7 15 9 15 1 1 -26 -9 -16 -8 -19 2 -13
8 6 10 4 3 -6 -13 -21 -14 -40 -2 -33 6 4 8 1 6 -7 -3 -8 -12 -13 -19 -11 -9
2 -8 -3 4 -16 20 -22 23 -57 5 -46 -10 5 -10 4 -1 -6 15 -17 5 -40 -14 -33
-11 4 -14 2 -9 -6 5 -7 -4 -23 -21 -39 -15 -15 -25 -23 -21 -17 5 5 8 13 8 19
0 5 -13 -9 -28 -30 -37 -50 -58 -68 -73 -58 -8 4 -9 3 -5 -5 12 -18 -54 -82
-79 -75 -15 4 -17 3 -6 -5 12 -8 4 -20 -39 -63 -30 -29 -48 -44 -40 -33 8 11
-10 -5 -41 -35 -31 -30 -65 -61 -75 -68 -11 -7 -12 -10 -4 -7 8 4 7 0 -4 -9
-10 -8 -24 -13 -29 -9 -6 4 -8 0 -4 -10 7 -19 -58 -81 -75 -71 -6 4 -9 1 -6
-6 5 -15 -25 -50 -42 -50 -5 0 -10 -5 -10 -11 0 -8 -5 -7 -15 1 -13 11 -14 10
-9 -4 3 -9 1 -16 -5 -16 -6 0 -10 -5 -8 -12 1 -6 -8 -17 -21 -23 -13 -7 -24
-16 -25 -21 -3 -16 -31 -44 -45 -44 -7 0 -11 -4 -8 -9 7 -11 -20 -34 -32 -27
-6 3 -9 -2 -8 -10 0 -10 -13 -22 -34 -31 -22 -8 -26 -12 -10 -9 l25 5 -24 -19
c-12 -11 -27 -17 -32 -14 -5 3 -9 0 -9 -7 0 -22 -41 -58 -58 -52 -10 5 -13 2
-8 -6 8 -12 -31 -58 -45 -54 -4 1 -9 -7 -12 -17 -4 -15 0 -20 14 -20 10 0 19
-6 19 -12 0 -8 3 -9 8 -3 11 16 44 18 53 3 7 -10 9 -10 9 0 0 6 7 12 15 12 8
0 15 -6 15 -12 0 -10 2 -10 9 0 10 17 22 14 39 -7 11 -14 11 -14 6 2 -4 12 -1
17 11 17 10 0 13 -5 9 -12 -5 -7 -3 -8 7 -2 19 12 33 12 41 -1 5 -7 8 -7 8 0
0 6 17 11 38 10 25 0 36 -4 34 -13 -1 -8 2 -11 8 -7 6 3 7 12 3 18 -4 8 -1 7
9 -1 12 -10 18 -10 23 -1 6 8 10 7 16 -2 7 -12 9 -11 9 0 0 11 4 9 15 -5 13
-16 14 -16 9 -1 -4 12 -1 17 11 17 10 0 13 -5 9 -12 -5 -7 -3 -8 7 -2 21 13
39 14 39 1 0 -8 3 -8 8 -2 4 6 22 11 40 13 25 1 32 -2 33 -15 0 -17 1 -17 8 0
8 22 21 24 32 5 7 -10 9 -10 9 2 0 13 1 13 10 0 8 -13 10 -13 10 -1 0 11 4 9
15 -5 13 -16 14 -16 9 -1 -4 12 -1 17 11 17 10 0 13 -5 9 -12 -5 -7 -3 -8 7
-2 19 12 33 12 41 -1 5 -7 8 -7 8 0 0 6 17 11 38 10 25 0 36 -4 34 -13 -1 -8
2 -11 8 -7 6 3 7 12 3 18 -4 8 -1 7 9 -1 12 -10 18 -10 23 -1 6 8 10 7 16 -2
7 -12 9 -11 9 0 0 11 4 9 15 -5 13 -16 14 -16 9 -1 -4 12 -1 17 11 17 10 0 13
-5 9 -12 -5 -7 -3 -8 7 -2 21 13 39 14 39 1 0 -8 3 -8 8 -2 4 6 22 11 40 13
25 1 32 -2 33 -15 0 -17 1 -17 8 0 8 22 21 24 32 5 7 -10 9 -10 9 2 0 13 1 13
10 0 8 -13 10 -13 10 -1 0 11 4 9 15 -5 13 -16 14 -16 9 -1 -4 12 -1 17 11 17
10 0 13 -5 9 -12 -5 -7 -3 -8 7 -2 19 12 33 12 41 -1 5 -7 8 -7 8 0 0 6 17 11
38 10 25 0 36 -4 34 -13 -1 -8 2 -11 8 -7 6 3 7 12 3 18 -4 8 -1 7 9 -1 12
-10 18 -10 23 -1 6 8 10 7 16 -2 7 -12 9 -11 9 0 0 11 4 9 15 -5 13 -16 14
-16 9 -1 -4 12 -1 17 11 17 10 0 13 -5 9 -12 -5 -7 -3 -8 7 -2 21 13 39 14 39
1 0 -8 3 -8 8 -2 4 6 22 11 40 13 25 1 32 -2 33 -15 0 -17 1 -17 8 0 8 22 21
24 32 5 7 -10 9 -10 9 2 0 13 1 13 10 0 9 -13 10 -13 10 0 0 13 1 13 10 0 5
-8 10 -10 10 -5 0 6 16 11 35 12 27 1 35 -2 36 -15 0 -15 1 -15 8 1 8 22 21
24 32 5 7 -10 9 -10 9 2 0 13 1 13 10 0 8 -13 10 -13 10 -1 0 11 4 9 15 -5 13
-16 14 -16 9 -1 -4 12 -1 17 11 17 10 0 13 -5 9 -12 -5 -7 -3 -8 7 -2 19 12
33 12 41 -1 5 -7 8 -7 8 0 0 6 17 11 38 10 25 0 36 -4 34 -13 -1 -8 2 -11 8
-7 6 3 7 12 3 18 -4 8 -1 7 9 -1 12 -10 18 -10 23 -1 6 8 10 7 16 -2 7 -12 9
-11 9 0 0 11 4 9 15 -5 13 -16 14 -16 9 -1 -4 12 -1 17 11 17 10 0 13 -5 9
-12 -5 -7 -3 -8 7 -2 21 13 39 14 39 1 0 -8 3 -8 8 -2 4 6 22 11 40 13 25 1
32 -2 33 -15 0 -17 1 -17 8 0 8 22 21 24 32 5 7 -10 9 -10 9 2 0 13 1 13 10 0
8 -13 10 -13 10 -1 0 11 4 9 15 -5 13 -16 14 -16 9 -1 -4 12 -1 17 11 17 10 0
13 -5 9 -12 -5 -7 -3 -8 7 -2 21 13 39 14 39 1 0 -8 3 -8 8 -2 11 16 75 18 66
3 -6 -10 -4 -10 7 -2 8 6 29 12 48 12 18 0 39 6 45 12 8 8 7 11 -4 8 -8 -2
-14 3 -12 10 1 6 -3 12 -10 12 -6 0 -36 25 -65 55 -29 30 -45 52 -36 50 10 -3
4 1 -14 10 -17 8 -35 20 -39 27 -5 8 -1 8 12 -2 18 -14 18 -14 5 2 -7 10 -16
16 -20 14 -4 -3 -13 0 -21 5 -13 8 -13 10 -1 18 12 8 8 11 -14 17 -31 8 -55
26 -55 42 0 5 -8 16 -17 23 -17 13 -17 12 -4 -6 8 -11 2 -8 -13 8 -15 15 -28
36 -29 46 0 10 -7 17 -13 14 -15 -5 -65 37 -58 49 3 4 -2 8 -11 8 -8 0 -18 7
-21 15 -4 8 -10 13 -14 10 -4 -3 -14 3 -21 12 -12 14 -12 16 0 8 10 -5 12 -4
7 3 -4 7 -13 12 -19 12 -7 0 -25 14 -41 31 -24 25 -27 33 -15 41 11 8 10 9 -4
4 -11 -4 -30 6 -55 30 -31 29 -35 36 -22 45 13 9 13 10 0 6 -24 -7 -52 12 -45
31 3 9 3 13 -1 9 -4 -4 -14 -1 -22 6 -13 10 -14 9 -7 -2 5 -10 4 -12 -4 -7 -6
4 -9 17 -6 29 2 12 2 16 -1 10 -9 -21 -27 -15 -21 7 3 11 1 18 -3 15 -5 -3
-10 -2 -13 2 -2 5 -2 1 0 -7 2 -9 -7 -4 -22 11 -14 14 -27 35 -28 47 0 11 -5
18 -9 16 -5 -3 -5 -11 -1 -17 4 -7 -1 -6 -11 2 -13 11 -14 16 -4 22 9 6 8 9
-6 9 -21 0 -58 38 -50 51 3 5 -1 7 -8 4 -7 -2 -33 14 -58 37 -25 23 -38 38
-30 34 8 -4 6 -1 -4 8 -10 8 -22 17 -27 18 -11 4 -19 68 -8 68 5 0 9 5 9 11 0
5 -4 7 -10 4 -6 -4 -10 6 -10 21 0 27 1 27 16 8 14 -17 14 -16 0 9 -15 25 -14
32 7 28 5 -1 6 3 2 9 -3 6 -11 8 -16 5 -5 -4 -9 1 -9 10 0 10 5 13 13 9 8 -5
8 -2 -2 9 -11 14 -11 17 0 17 9 0 10 3 4 8 -16 11 -12 138 4 134 7 -1 10 2 6
8 -3 6 -10 8 -14 6 -4 -3 -8 11 -9 32 0 31 1 34 8 15 5 -13 12 -23 14 -23 7 0
-4 32 -17 48 -6 8 -5 12 4 12 9 0 10 3 4 8 -16 11 -12 98 4 94 7 -1 10 2 6 8
-3 6 -11 8 -16 5 -5 -4 -9 3 -9 14 0 12 6 21 13 21 9 0 8 3 -2 9 -7 5 -10 14
-7 20 4 6 12 8 18 5 7 -4 8 -2 4 5 -4 6 -12 9 -17 6 -5 -4 -9 1 -9 10 0 10 5
13 13 9 8 -5 8 -2 -2 9 -11 14 -11 17 0 17 9 0 10 3 4 8 -12 9 -14 173 -2 165
5 -3 4 4 -2 16 -9 16 -9 21 1 21 10 0 9 3 -1 9 -8 5 -16 17 -17 26 -2 12 1 14
11 5 10 -8 15 -8 21 2 4 7 4 10 -1 6 -9 -9 -35 9 -35 24 0 5 6 6 13 2 8 -6 8
-3 -1 9 -15 18 -7 41 11 30 7 -3 4 3 -5 14 -10 11 -18 26 -18 34 0 12 2 12 10
-1 7 -12 9 -10 7 7 0 12 -5 19 -9 17 -13 -8 -9 11 4 25 9 10 9 12 1 7 -13 -7
-12 31 2 53 5 10 4 12 -3 7 -7 -4 -12 -1 -12 9 0 12 5 15 18 11 14 -5 14 -4
-2 9 -14 11 -16 15 -5 15 11 0 12 2 0 9 -9 6 -10 10 -2 16 9 5 9 11 -1 23 -8
10 -9 13 -1 9 6 -4 15 -3 18 3 4 6 1 9 -7 8 -16 -4 -19 63 -3 74 6 5 5 8 -2 8
-18 0 -16 20 5 44 13 16 14 18 1 8 -14 -11 -17 -9 -16 13 0 15 4 22 11 18 6
-4 5 1 -2 10 -15 18 -7 41 11 30 7 -3 4 3 -5 14 -10 11 -18 26 -18 34 0 12 2
12 10 -1 7 -12 9 -10 7 7 0 12 -5 19 -9 17 -13 -8 -9 11 5 25 10 11 10 13 0 7
-16 -9 -17 6 -1 22 9 9 9 12 -2 12 -13 0 -13 2 0 10 10 6 11 10 3 10 -15 0
-13 21 2 32 6 5 5 8 -2 8 -7 0 -13 5 -13 11 0 5 6 7 13 3 9 -6 9 -4 -1 7 -14
15 -16 33 -3 24 5 -3 13 -1 16 5 4 6 1 9 -7 8 -16 -4 -19 44 -3 54 6 5 6 8 -2
8 -17 0 -17 27 0 33 9 4 9 6 0 6 -7 1 -13 6 -13 12 0 5 6 7 13 3 9 -6 8 -3 -1
8 -15 18 -13 59 3 70 6 5 4 8 -5 8 -13 0 -13 1 0 10 12 8 12 10 1 10 -11 0
-11 3 0 17 8 9 9 14 3 10 -6 -3 -11 1 -11 9 0 9 6 13 15 9 11 -4 12 -2 4 8 -9
10 -3 21 23 46 20 19 40 29 46 25 8 -4 9 -3 5 5 -9 14 38 66 51 58 5 -3 15 -1
23 5 12 8 12 9 -2 4 -21 -6 -23 1 -4 19 9 10 16 11 24 3 8 -8 9 -5 6 8 -5 19
44 74 70 78 19 3 37 17 31 26 -2 4 5 20 16 35 15 18 28 25 42 21 14 -3 17 -2
9 6 -8 8 -7 15 3 24 18 19 25 17 19 -3 -5 -15 -4 -15 4 -3 6 8 8 18 6 22 -3 5
15 29 40 54 25 24 43 37 40 27 -4 -10 5 -2 19 17 14 19 73 82 132 139 94 92
107 102 123 90 15 -13 16 -12 3 4 -13 16 -8 24 55 85 37 37 72 66 77 64 5 -1
6 2 3 6 -3 5 3 17 14 27 17 15 22 16 37 4 16 -13 17 -12 4 4 -12 15 -4 26 75
105 49 48 82 79 75 69 -12 -15 -12 -20 -1 -30 8 -7 10 -7 7 -1 -7 13 14 64 26
64 5 0 5 -5 1 -12 -4 -7 -3 -8 5 -4 6 4 9 11 7 15 -3 4 6 18 19 29 14 12 25
19 25 14 0 -4 6 4 13 18 7 14 21 24 30 24 9 -1 16 1 15 5 -2 22 4 32 17 27 8
-3 14 0 12 7 -1 7 4 11 11 9 8 -1 11 2 7 9 -9 14 47 67 65 61 7 -3 10 0 6 6
-10 17 52 82 71 75 10 -4 14 -2 10 4 -4 5 1 19 9 29 9 11 13 12 9 4 -3 -8 0
-7 7 3 26 38 80 87 89 81 5 -3 9 -2 8 3 -4 23 2 35 16 29 8 -3 14 0 12 7 -1 7
4 11 11 9 8 -1 11 2 7 9 -9 14 47 67 65 61 8 -3 10 0 6 7 -4 7 16 35 50 69 31
31 53 50 48 42 -11 -19 -15 -44 -6 -35 4 4 8 10 8 13 6 28 18 52 26 52 5 0 6
-4 3 -10 -3 -5 -4 -10 0 -10 3 0 10 12 15 26 7 18 15 24 26 20 9 -3 12 -2 9 5
-8 12 14 41 25 34 4 -3 10 5 13 16 4 14 11 20 21 16 10 -4 13 -1 9 8 -3 9 4
18 21 25 14 5 26 12 26 15 0 4 -6 3 -12 -1 -7 -4 -5 1 4 11 15 16 19 17 35 4
16 -13 17 -12 4 4 -11 13 -11 20 -1 32 7 8 17 12 23 8 5 -3 7 -1 4 4 -4 6 0
16 8 23 13 11 15 10 10 -6 -3 -10 2 -4 10 14 11 23 21 32 31 28 9 -3 12 -2 9
5 -8 12 14 41 26 33 5 -3 9 1 9 8 0 15 41 54 53 50 4 -1 7 3 7 9 0 6 7 8 16 5
14 -5 15 -4 4 9 -10 12 -10 15 4 15 9 0 15 3 14 8 -4 11 35 52 50 52 7 0 11 4
8 9 -8 12 21 34 33 26 7 -3 8 0 5 9 -4 11 2 19 17 25 13 5 20 10 16 10 -5 1
-1 8 8 17 13 14 18 14 33 2 15 -12 16 -11 3 5 -11 13 -11 20 -1 32 7 8 16 12
21 9 5 -3 8 0 7 7 -2 6 3 14 11 17 8 3 11 0 7 -7 -5 -7 -1 -9 9 -4 13 5 14 7
3 14 -11 7 -10 11 2 18 8 5 17 8 21 5 4 -2 9 6 12 17 4 14 11 20 21 16 8 -3
18 -1 22 5 4 7 3 8 -4 4 -19 -11 -14 1 10 29 22 25 45 35 32 13 -4 -7 -3 -8 4
-4 6 4 9 13 6 20 -6 17 22 40 37 30 8 -4 9 -3 5 5 -10 15 50 75 65 65 7 -4 9
-3 6 3 -7 11 20 53 34 53 6 0 7 -5 3 -12 -4 -7 -3 -8 4 -4 6 4 9 13 6 20 -6
17 22 40 37 30 8 -4 9 -3 5 5 -10 16 129 155 145 145 8 -4 9 -3 5 4 -9 15 41
65 56 56 8 -5 9 -2 5 9 -3 10 -2 17 4 17 6 0 9 10 7 23 -2 17 -9 22 -31 20
-18 -1 -25 2 -21 9 5 7 2 8 -7 2 -17 -10 -279 -13 -273 -3 2 4 -1 11 -7 15 -7
4 -9 3 -5 -4 3 -6 1 -14 -5 -18 -6 -3 -15 0 -20 7 -6 10 -9 11 -9 2 0 -7 -9
-13 -21 -13 -11 0 -18 4 -14 9 3 5 1 13 -5 16 -6 4 -9 1 -8 -6 2 -8 -9 -13
-32 -13 -26 -1 -34 3 -32 14 3 11 -1 11 -16 -3 -22 -20 -37 -23 -26 -4 6 9 5
9 -7 0 -16 -13 -81 -15 -73 -2 2 4 0 11 -6 14 -6 4 -9 1 -8 -6 4 -16 -123 -20
-134 -4 -5 6 -8 5 -8 -4 0 -11 -3 -11 -17 0 -11 10 -14 10 -9 2 4 -8 1 -13 -9
-13 -9 0 -14 4 -10 9 3 5 0 13 -6 17 -7 4 -9 3 -5 -4 3 -6 1 -14 -5 -18 -6 -3
-15 0 -20 7 -6 10 -9 11 -9 2 0 -7 -9 -13 -21 -13 -11 0 -18 4 -14 9 3 5 1 13
-5 16 -6 4 -9 1 -8 -6 2 -6 -3 -14 -11 -17 -9 -3 -11 0 -6 8 6 9 4 11 -6 4
-20 -12 -51 -16 -44 -5 3 5 0 13 -6 17 -7 4 -9 3 -5 -4 3 -6 1 -14 -5 -18 -6
-3 -15 0 -20 7 -6 10 -9 11 -9 2 0 -7 -9 -13 -21 -13 -11 0 -18 4 -14 9 3 5 1
13 -5 16 -6 4 -9 1 -8 -6 2 -8 -9 -13 -32 -13 -26 -1 -34 3 -32 14 3 11 -1 11
-16 -3 -22 -20 -37 -23 -26 -4 6 9 5 9 -7 0 -16 -13 -81 -15 -73 -2 2 4 0 11
-6 14 -6 4 -9 1 -8 -6 4 -16 -123 -20 -134 -4 -5 6 -8 5 -8 -4 0 -11 -3 -11
-17 0 -11 10 -14 10 -9 2 4 -8 1 -13 -9 -13 -9 0 -13 5 -10 10 3 6 1 10 -4 10
-6 0 -11 -4 -11 -10 0 -5 -5 -10 -11 -10 -5 0 -7 5 -4 11 4 6 -2 5 -14 -3 -17
-10 -23 -10 -33 0 -11 11 -9 12 7 7 16 -5 17 -5 5 3 -8 6 -19 8 -25 4 -16 -10
-85 -10 -78 1 3 5 -4 4 -15 -2 -27 -14 -35 -14 -26 2 5 8 2 8 -9 -2 -11 -9
-17 -10 -17 -2 0 6 -5 11 -11 11 -5 0 -7 -4 -4 -10 3 -5 -1 -10 -9 -10 -9 0
-16 5 -16 11 0 8 -4 8 -14 0 -10 -8 -16 -9 -21 -1 -3 5 -12 10 -18 10 -7 0 -6
-4 3 -10 12 -8 11 -10 -7 -10 -12 0 -24 6 -26 13 -4 10 -6 10 -6 0 -1 -7 -6
-13 -12 -13 -5 0 -7 6 -3 13 6 10 4 10 -7 0 -16 -16 -33 -17 -23 -2 5 8 1 8
-14 0 -11 -6 -23 -11 -27 -11 -3 0 -3 5 1 11 5 8 1 8 -14 0 -26 -14 -35 -14
-26 0 5 8 1 8 -14 0 -27 -14 -35 -14 -26 2 5 8 2 8 -9 -2 -11 -9 -17 -10 -17
-2 0 6 -5 11 -11 11 -5 0 -7 -4 -4 -10 3 -5 -1 -10 -9 -10 -9 0 -16 5 -16 11
0 8 -4 8 -14 0 -10 -8 -16 -9 -21 -1 -3 5 -12 10 -18 10 -7 0 -6 -4 3 -10 12
-8 11 -10 -7 -10 -12 0 -24 6 -26 13 -4 10 -6 10 -6 0 -1 -7 -6 -13 -12 -13
-5 0 -7 6 -3 13 6 10 4 10 -7 0 -16 -16 -33 -17 -23 -2 5 8 1 8 -14 0 -27 -14
-35 -14 -26 2 6 9 4 9 -8 -1 -13 -10 -17 -10 -21 0 -4 10 -6 10 -6 1 -1 -7 -9
-13 -18 -13 -15 0 -16 2 -3 10 9 6 10 10 3 10 -6 0 -15 -4 -18 -10 -3 -5 -11
-10 -16 -10 -6 0 -8 4 -5 8 2 4 -5 9 -17 9 -17 2 -19 0 -7 -7 12 -8 11 -10 -7
-10 -12 0 -24 6 -26 13 -4 10 -6 10 -6 0 -1 -15 -31 -18 -31 -3 0 6 -5 10 -11
10 -5 0 -7 -4 -4 -10 3 -5 -1 -10 -9 -10 -9 0 -16 5 -16 11 0 8 -4 8 -14 0
-10 -8 -16 -9 -21 -1 -3 5 -12 10 -18 10 -7 0 -6 -4 3 -10 12 -8 11 -10 -7
-10 -13 0 -23 6 -23 13 0 9 -2 9 -8 -1 -10 -14 -62 -12 -62 3 0 5 -5 3 -10 -5
-8 -12 -11 -13 -19 -1 -7 11 -9 11 -14 0 -5 -12 -6 -12 -6 0 -1 10 -4 11 -15
2 -10 -8 -16 -9 -21 -1 -3 5 -12 10 -18 10 -7 0 -6 -4 3 -10 10 -6 6 -9 -18
-8 -17 1 -29 5 -25 11 3 5 -4 4 -15 -2 -27 -14 -35 -14 -26 2 5 8 2 8 -9 -2
-11 -9 -17 -10 -17 -2 0 6 -5 11 -11 11 -5 0 -7 -4 -4 -10 3 -5 -1 -10 -9 -10
-9 0 -16 5 -16 11 0 8 -4 8 -14 0 -10 -8 -16 -9 -21 -1 -3 5 -12 10 -18 10 -7
0 -6 -4 3 -10 12 -8 11 -10 -7 -10 -13 0 -23 5 -23 10 0 6 -5 10 -11 10 -5 0
-8 -4 -5 -9 3 -5 -5 -8 -19 -8 -14 0 -22 4 -19 9 4 6 -3 5 -14 -1 -27 -14 -35
-14 -26 2 6 9 4 9 -7 1 -18 -14 -49 -14 -49 0 0 6 -5 4 -10 -4 -8 -12 -11 -13
-19 -1 -7 11 -9 11 -14 0 -5 -12 -6 -12 -6 0 -1 10 -4 11 -15 2 -10 -8 -16 -9
-21 -1 -3 5 -12 10 -18 10 -7 0 -6 -4 3 -10 12 -8 11 -10 -7 -10 -13 0 -23 5
-23 10 0 6 -5 10 -11 10 -5 0 -7 -4 -4 -10 3 -5 -1 -10 -9 -10 -9 0 -16 5 -16
11 0 8 -4 8 -14 0 -10 -8 -16 -9 -21 -1 -3 5 -12 10 -18 10 -7 0 -6 -4 3 -10
12 -8 11 -10 -7 -10 -12 0 -24 6 -26 13 -4 10 -6 10 -6 0 -1 -15 -31 -18 -31
-3 0 6 -5 10 -11 10 -5 0 -7 -4 -4 -10 3 -5 -1 -10 -9 -10 -9 0 -16 5 -16 11
0 8 -4 8 -14 0 -10 -8 -16 -9 -21 -1 -3 5 -12 10 -18 10 -7 0 -6 -4 3 -10 12
-8 11 -10 -7 -10 -12 0 -24 6 -26 13 -4 10 -6 10 -6 0 -1 -7 -6 -13 -12 -13
-5 0 -7 6 -3 13 6 10 4 10 -7 0 -16 -16 -33 -17 -23 -2 5 8 1 8 -14 0 -27 -14
-35 -14 -26 2 5 8 2 8 -9 -2 -11 -9 -17 -10 -17 -2 0 6 -5 11 -11 11 -5 0 -7
-4 -4 -10 3 -5 -1 -10 -9 -10 -9 0 -16 5 -16 11 0 8 -4 8 -14 0 -10 -8 -16 -9
-21 -1 -3 5 -12 10 -18 10 -7 0 -6 -4 3 -10 12 -8 11 -10 -7 -10 -12 0 -24 6
-26 13 -4 10 -6 10 -6 0 -1 -7 -6 -13 -12 -13 -5 0 -7 6 -3 13 6 10 4 10 -7 0
-16 -16 -33 -17 -23 -2 5 8 1 8 -14 0 -11 -6 -23 -11 -27 -11 -3 0 -3 5 1 11
5 8 1 8 -14 0 -11 -6 -23 -11 -27 -11 -3 0 -3 5 1 11 5 8 1 8 -14 0 -27 -14
-35 -14 -26 2 5 8 2 8 -9 -2 -11 -9 -17 -10 -17 -2 0 6 -5 11 -11 11 -5 0 -7
-4 -4 -10 3 -5 -1 -10 -9 -10 -9 0 -16 5 -16 11 0 8 -4 8 -14 0 -10 -8 -16 -9
-21 -1 -3 5 -12 10 -18 10 -7 0 -6 -4 3 -10 12 -8 11 -10 -7 -10 -12 0 -24 6
-26 13 -4 10 -6 10 -6 0 -1 -7 -6 -13 -12 -13 -5 0 -7 6 -3 13 6 10 4 10 -7 0
-16 -16 -33 -17 -23 -2 5 8 1 8 -14 0 -27 -14 -35 -14 -26 2 6 9 4 9 -7 1 -18
-14 -49 -14 -49 0 0 6 -5 4 -10 -4 -8 -12 -11 -13 -19 -1 -7 11 -9 11 -14 0
-5 -12 -6 -12 -6 0 -1 10 -4 11 -15 2 -10 -8 -16 -9 -21 -1 -3 5 -12 10 -18
10 -7 0 -6 -4 3 -10 10 -6 6 -9 -18 -8 -17 1 -29 5 -25 11 3 5 -4 4 -15 -2
-27 -14 -35 -14 -26 2 5 8 2 8 -9 -2 -11 -9 -17 -10 -17 -2 0 6 -5 11 -11 11
-5 0 -7 -4 -4 -10 3 -5 -1 -10 -9 -10 -9 0 -16 5 -16 11 0 8 -4 8 -14 0 -10
-8 -16 -9 -21 -1 -3 5 -12 10 -18 10 -7 0 -6 -4 3 -10 12 -8 11 -10 -7 -10
-13 0 -23 5 -23 10 0 6 -5 10 -11 10 -5 0 -8 -4 -5 -9 3 -5 -5 -8 -19 -8 -14
0 -22 4 -19 9 4 6 -3 5 -14 -1 -27 -14 -35 -14 -26 2 6 9 4 9 -7 1 -18 -14
-49 -14 -49 0 0 6 -5 4 -10 -4 -8 -12 -11 -13 -19 -1 -7 11 -9 11 -14 0 -5
-12 -6 -12 -6 0 -1 10 -4 11 -15 2 -10 -8 -16 -9 -21 -1 -3 5 -12 10 -18 10
-7 0 -6 -4 3 -10 11 -8 5 -10 -22 -8 -21 1 -38 7 -38 13 0 5 -5 3 -10 -5 -8
-12 -11 -13 -19 -1 -7 11 -9 11 -14 0 -5 -12 -6 -12 -6 0 -1 10 -4 11 -15 2
-10 -8 -16 -9 -21 -1 -3 5 -12 10 -18 10 -7 0 -6 -4 3 -10 10 -6 6 -9 -18 -8
-17 1 -29 5 -25 11 3 5 -4 4 -15 -2 -27 -14 -35 -14 -26 2 5 8 2 8 -9 -2 -11
-9 -17 -10 -17 -2 0 6 -5 11 -11 11 -5 0 -7 -4 -4 -10 3 -5 -1 -10 -9 -10 -9
0 -16 5 -16 11 0 8 -4 8 -14 0 -10 -8 -16 -9 -21 -1 -3 5 -12 10 -18 10 -7 0
-6 -4 3 -10 12 -8 11 -10 -7 -10 -13 0 -23 5 -23 10 0 6 -5 10 -11 10 -5 0 -8
-4 -5 -9 3 -5 -5 -8 -19 -8 -14 0 -22 4 -19 9 4 6 -3 5 -14 -1 -27 -14 -35
-14 -26 2 6 9 4 9 -7 1 -18 -14 -49 -14 -49 0 0 6 -5 4 -10 -4 -8 -12 -11 -13
-19 -1 -7 11 -9 11 -14 0 -5 -12 -6 -12 -6 0 -1 10 -4 11 -15 2 -10 -8 -16 -9
-21 -1 -3 5 -12 10 -18 10 -7 0 -6 -4 3 -10 12 -8 11 -10 -7 -10 -13 0 -23 5
-23 10 0 6 -5 10 -11 10 -5 0 -7 -4 -4 -10 3 -5 -1 -10 -9 -10 -9 0 -16 5 -16
11 0 8 -4 8 -14 0 -10 -8 -16 -9 -21 -1 -3 5 -12 10 -18 10 -7 0 -6 -4 3 -10
12 -8 11 -10 -7 -10 -12 0 -24 6 -26 13 -4 10 -6 10 -6 0 -1 -15 -31 -18 -31
-3 0 6 -5 10 -11 10 -5 0 -7 -4 -4 -10 3 -5 -1 -10 -9 -10 -9 0 -16 5 -16 11
0 8 -4 8 -14 0 -10 -8 -16 -9 -21 -1 -3 5 -12 10 -18 10 -7 0 -6 -4 3 -10 12
-8 11 -10 -7 -10 -13 0 -23 6 -23 13 0 9 -2 9 -8 -1 -10 -14 -62 -12 -62 3 0
5 -5 3 -10 -5 -8 -12 -11 -13 -19 -1 -7 11 -9 11 -14 0 -5 -12 -6 -12 -6 0 -1
10 -4 11 -15 2 -10 -8 -16 -9 -21 -1 -3 5 -12 10 -18 10 -7 0 -6 -4 3 -10 10
-6 6 -9 -18 -8 -17 1 -29 5 -25 11 3 5 -4 4 -15 -2 -27 -14 -35 -14 -26 2 5 8
2 8 -9 -2 -11 -9 -17 -10 -17 -2 0 6 -5 11 -11 11 -5 0 -7 -4 -4 -10 3 -5 -1
-10 -9 -10 -9 0 -16 5 -16 11 0 8 -4 8 -14 0 -10 -8 -16 -9 -21 -1 -3 5 -12
10 -18 10 -7 0 -6 -4 3 -10 12 -8 11 -10 -7 -10 -13 0 -23 5 -23 10 0 6 -5 10
-11 10 -5 0 -8 -4 -5 -9 3 -5 -5 -8 -19 -8 -14 0 -22 4 -19 9 4 6 -3 5 -14 -1
-27 -14 -35 -14 -26 2 6 9 4 9 -7 1 -18 -14 -49 -14 -49 0 0 6 -5 4 -10 -4 -8
-12 -11 -13 -19 -1 -7 11 -9 11 -14 0 -5 -12 -6 -12 -6 0 -1 10 -4 11 -15 2
-10 -8 -16 -9 -21 -1 -3 5 -12 10 -18 10 -8 0 -8 -3 2 -9 8 -5 -8 -8 -43 -8
-30 0 -53 3 -50 8 3 5 3 9 -1 9 -3 0 -8 -6 -11 -14z m1221 -517 c3 -4 25 -4
47 -1 31 4 39 2 33 -7 -6 -10 -3 -11 13 -2 17 9 23 8 32 -6 11 -17 11 -17 6 0
-6 20 6 22 36 6 15 -8 19 -8 13 0 -9 16 41 7 63 -11 15 -12 16 -11 3 5 -13 16
-12 18 12 13 15 -2 32 -8 38 -12 8 -4 9 -3 5 4 -5 8 0 11 16 8 13 -3 27 -5 31
-5 5 -1 5 -6 1 -13 -4 -7 -3 -8 5 -4 6 4 9 11 7 15 -10 15 109 7 122 -9 11
-13 11 -13 6 1 -4 12 1 16 18 15 13 0 26 -5 30 -11 5 -7 8 -6 8 1 0 5 11 10
25 10 19 0 24 -4 20 -15 -4 -14 -4 -14 7 -1 7 9 22 16 33 16 11 0 26 -7 33
-16 11 -13 12 -13 7 0 -4 11 2 16 22 18 21 1 24 0 13 -8 -8 -5 -10 -10 -4 -10
6 0 14 3 18 7 4 4 19 9 34 10 21 3 24 1 12 -7 -9 -6 -10 -10 -3 -10 6 0 14 4
18 9 6 11 44 9 64 -4 10 -5 12 -4 7 3 -5 8 0 12 13 12 15 0 19 -4 14 -17 -6
-17 -6 -17 11 0 15 15 21 16 34 5 12 -10 14 -10 8 0 -5 8 0 12 14 12 12 0 19
-4 15 -9 -3 -5 0 -13 6 -17 7 -4 9 -3 6 3 -10 16 18 24 33 10 10 -9 11 -9 6 1
-5 8 0 12 13 12 15 0 19 -4 14 -17 -6 -17 -6 -17 11 0 15 15 21 16 34 5 13
-11 14 -11 8 0 -6 10 -1 12 22 9 17 -3 36 -8 43 -13 8 -4 10 -3 5 4 -5 8 0 11
16 8 13 -3 27 -5 31 -5 5 -1 5 -6 1 -13 -4 -7 -3 -8 5 -4 6 4 9 11 6 15 -6 11
97 7 115 -4 8 -5 11 -4 7 2 -8 13 52 11 73 -2 9 -5 11 -4 6 4 -8 12 33 9 55
-5 7 -4 9 -3 6 3 -10 17 103 9 115 -8 8 -11 9 -10 4 4 -4 14 -1 16 19 13 14
-3 30 -8 36 -12 8 -4 9 -3 5 5 -8 12 33 9 55 -5 7 -4 9 -3 6 4 -8 12 61 10 82
-3 10 -5 12 -4 7 3 -5 8 0 12 13 12 15 0 19 -4 14 -17 -6 -17 -6 -17 11 0 15
15 21 16 34 5 12 -10 14 -10 8 0 -5 8 0 12 14 12 12 0 19 -4 15 -9 -3 -5 0
-13 6 -17 7 -4 9 -3 6 3 -10 16 18 24 33 10 10 -9 11 -9 6 1 -5 8 0 12 14 12
13 0 19 -4 14 -11 -4 -8 0 -8 15 0 20 11 25 8 22 -12 -1 -5 3 -6 9 -2 6 3 8
11 5 16 -11 16 28 10 48 -8 11 -10 17 -12 13 -5 -10 17 4 15 28 -5 18 -16 19
-16 8 -1 -12 15 -11 17 10 16 13 -1 32 -9 43 -17 18 -15 19 -15 7 1 -12 15
-11 17 10 16 13 -1 29 -6 36 -11 9 -7 17 -6 24 1 16 16 31 15 22 0 -5 -8 -1
-8 10 1 15 13 19 13 27 0 6 -10 9 -10 9 -1 0 6 5 12 11 12 5 0 7 -6 3 -12 -6
-10 -4 -10 7 -2 20 16 51 14 74 -5 18 -15 19 -15 7 1 -12 15 -11 17 10 16 13
-1 29 -6 36 -11 9 -7 17 -6 24 1 16 16 31 15 22 0 -5 -8 -1 -8 10 1 15 13 19
13 27 0 6 -10 9 -10 9 -1 0 6 5 12 11 12 5 0 7 -6 3 -12 -6 -10 -4 -10 7 -2
20 16 51 14 74 -5 17 -14 18 -14 8 0 -11 14 -6 15 40 15 37 -1 51 -5 49 -14
-1 -8 2 -11 8 -7 6 3 8 10 6 14 -3 4 1 8 9 8 8 0 15 -4 15 -9 0 -4 5 -8 11 -8
5 0 7 5 4 10 -3 6 1 10 9 10 9 0 16 -6 16 -12 0 -8 3 -9 8 -3 4 6 23 10 42 10
26 0 34 -4 32 -15 -3 -11 1 -11 16 3 10 9 25 17 33 17 12 0 11 -2 -1 -10 -8
-5 -10 -10 -4 -10 5 0 15 5 22 12 9 9 12 9 12 0 0 -7 5 -12 11 -12 5 0 8 4 5
9 -3 5 6 9 19 9 22 0 24 -3 13 -17 -11 -14 -11 -14 3 -4 9 7 20 9 24 5 5 -4 5
-2 2 4 -4 7 7 11 33 11 22 0 37 -4 34 -8 -2 -4 0 -11 6 -14 6 -4 9 -1 8 6 -2
7 9 14 25 15 15 2 25 -1 22 -7 -4 -5 -2 -9 4 -9 5 0 12 6 15 13 5 9 7 9 12 -2
5 -11 8 -11 14 0 7 10 12 10 26 -2 11 -9 15 -9 10 -1 -4 6 -2 12 3 12 6 0 11
-6 11 -12 0 -8 3 -9 8 -3 11 17 65 14 79 -4 12 -15 13 -15 7 0 -4 12 1 17 20
17 14 0 26 -4 26 -9 0 -5 5 -9 11 -9 5 0 7 5 4 10 -9 14 8 12 24 -2 8 -8 11
-8 8 -2 -4 7 3 12 18 12 14 0 23 -4 20 -8 -2 -3 2 -7 10 -7 8 0 12 4 10 7 -9
15 70 5 83 -10 11 -13 11 -13 7 0 -4 13 4 16 42 15 34 0 47 -4 45 -13 -1 -8 2
-11 8 -7 6 3 8 10 6 14 -3 4 1 8 9 8 8 0 15 -4 15 -9 0 -4 5 -8 11 -8 5 0 7 5
4 10 -11 17 17 11 31 -7 13 -17 14 -17 7 2 -6 17 -5 18 9 7 12 -9 18 -10 23
-2 8 13 47 9 57 -5 5 -6 8 -5 8 3 0 6 7 12 15 12 8 0 15 -6 15 -12 0 -9 4 -8
10 2 8 13 10 13 10 1 0 -12 3 -12 12 -3 16 16 31 15 22 0 -6 -10 -4 -10 7 0 7
6 17 12 22 12 4 0 5 -6 1 -12 -6 -10 -5 -10 7 -1 21 17 61 13 54 -5 -3 -10 0
-12 10 -8 23 8 18 2 -16 -23 -29 -22 -31 -22 -45 -4 -14 17 -14 17 -5 -4 15
-29 14 -36 -4 -30 -8 4 -17 1 -21 -5 -5 -7 -2 -8 6 -3 8 5 11 3 8 -6 -3 -8
-11 -13 -17 -12 -6 2 -11 -4 -11 -13 0 -13 -3 -14 -14 -5 -11 9 -16 9 -22 0
-4 -8 -3 -9 4 -5 24 15 11 -13 -24 -50 -20 -22 -33 -32 -28 -24 5 9 -2 4 -16
-10 -14 -14 -20 -19 -15 -10 9 13 8 13 -7 1 -10 -7 -18 -19 -18 -25 0 -15 -48
-59 -58 -52 -4 2 -14 0 -22 -6 -12 -8 -12 -9 3 -4 29 9 19 -7 -41 -64 -168
-160 -202 -190 -199 -178 2 7 -1 3 -7 -9 -5 -13 -16 -23 -24 -23 -7 0 -10 -4
-7 -10 3 -5 -1 -10 -10 -10 -9 0 -13 -4 -10 -10 3 -5 2 -10 -3 -10 -5 0 -19
-9 -32 -20 -12 -11 -27 -17 -32 -14 -5 3 -8 -2 -6 -12 2 -13 -3 -19 -14 -18
-10 1 -16 -3 -15 -10 1 -6 -4 -10 -11 -8 -8 1 -11 -2 -7 -7 8 -14 -28 -48 -45
-43 -7 3 -10 0 -7 -5 4 -6 -1 -19 -9 -29 -9 -10 -12 -13 -8 -5 5 9 3 12 -4 7
-7 -4 -12 -14 -12 -21 0 -9 -6 -12 -15 -9 -8 4 -17 -1 -21 -9 -4 -13 -17 -15
-62 -11 -31 3 -63 6 -69 7 -7 0 -13 5 -13 11 0 6 -5 4 -11 -4 -8 -11 -12 -12
-16 -2 -2 6 -9 12 -14 12 -6 0 -7 -4 -4 -10 3 -5 1 -10 -4 -10 -6 0 -11 4 -11
8 0 5 -16 8 -35 7 -19 -1 -35 2 -35 6 0 5 -7 5 -17 2 -12 -5 -14 -3 -8 8 7 11
6 12 -6 3 -8 -5 -20 -9 -26 -8 -7 1 -18 2 -24 3 -5 0 -7 7 -3 14 6 9 5 9 -7 0
-13 -10 -19 -10 -35 2 -10 8 -23 14 -29 15 -5 0 -3 -5 5 -11 12 -9 12 -10 -3
-5 -10 3 -25 6 -33 6 -8 0 -14 5 -14 11 0 5 5 7 12 3 7 -4 8 -3 4 4 -5 9 -12
9 -26 0 -15 -10 -22 -9 -38 5 -10 9 -23 17 -28 17 -5 0 -2 -5 6 -10 11 -8 7
-9 -15 -4 -16 4 -34 9 -40 13 -11 6 -32 12 -52 13 -7 1 -13 4 -13 7 0 4 -12 8
-27 9 -16 1 -30 7 -31 12 -2 6 -7 8 -12 5 -11 -7 -61 16 -55 25 2 4 -7 6 -21
4 -18 -2 -35 6 -52 23 -17 17 -23 19 -18 8 5 -14 4 -16 -7 -7 -8 7 -17 9 -20
5 -4 -3 -7 2 -7 13 0 16 -2 17 -10 4 -6 -10 -10 -11 -10 -2 0 6 -5 11 -12 10
-7 -2 -12 2 -13 9 0 6 -4 15 -9 20 -5 4 -6 3 -2 -4 3 -6 2 -14 -4 -18 -5 -3
-10 2 -11 12 0 11 -3 13 -6 5 -4 -10 -8 -10 -19 -1 -8 6 -11 16 -7 22 3 6 1 7
-6 3 -6 -4 -9 -12 -6 -17 11 -17 -4 -9 -26 14 -12 12 -19 16 -15 10 4 -7 3
-13 -1 -13 -5 0 -15 6 -22 13 -11 9 -12 9 -7 0 5 -9 2 -11 -8 -7 -9 3 -13 10
-10 15 3 5 1 9 -5 9 -5 0 -12 -6 -14 -12 -3 -7 -6 -4 -6 7 -1 17 -3 18 -11 5
-8 -12 -11 -13 -19 -1 -5 8 -11 9 -15 3 -3 -6 -15 -8 -27 -5 -16 4 -17 8 -7
14 9 6 9 9 1 9 -6 0 -14 -4 -18 -9 -3 -6 -15 -7 -28 -4 -12 3 -47 5 -77 5 -30
0 -60 4 -66 9 -8 7 -14 6 -19 -1 -3 -5 -11 -10 -17 -10 -6 0 -5 7 3 18 13 15
12 16 -3 4 -10 -8 -23 -10 -30 -6 -11 6 -11 5 0 -8 12 -15 8 -16 -33 -13 -25
2 -43 0 -41 -4 3 -4 -1 -8 -9 -8 -8 0 -12 3 -10 7 2 4 -2 7 -10 7 -8 0 -11 -5
-8 -10 4 -6 0 -8 -10 -4 -10 3 -17 2 -17 -3 0 -6 -5 -10 -11 -10 -5 0 -7 4 -4
10 3 5 -7 3 -22 -5 -26 -13 -48 -21 -66 -24 -4 0 -21 -8 -37 -16 -17 -9 -35
-13 -40 -10 -6 3 -10 1 -10 -4 0 -6 -3 -10 -7 -9 -5 1 -18 -3 -30 -10 -12 -6
-29 -9 -39 -5 -11 4 -15 3 -11 -4 8 -12 -20 -26 -34 -17 -5 3 -9 0 -9 -6 0
-10 -48 -35 -62 -32 -5 1 -8 -4 -8 -11 0 -8 -4 -7 -10 3 -9 15 -11 13 -14 -12
-1 -7 -12 -12 -24 -11 -13 2 -21 -1 -18 -6 3 -5 -6 -17 -20 -26 -18 -12 -24
-13 -19 -4 4 8 -2 5 -12 -7 -30 -35 -127 -101 -141 -96 -7 2 -11 -2 -10 -10 2
-7 -3 -12 -9 -11 -7 2 -13 -3 -13 -11 0 -8 -7 -17 -16 -20 -10 -4 -13 -2 -8 7
6 9 5 9 -8 0 -8 -7 -19 -9 -24 -5 -4 4 -3 0 4 -9 10 -13 9 -19 -5 -30 -10 -8
-14 -9 -10 -2 5 7 -2 17 -15 24 -22 12 -22 11 -8 -7 8 -10 -6 1 -31 26 -25 25
-43 48 -41 53 2 4 -3 7 -10 7 -19 1 -71 57 -63 69 3 7 0 8 -9 5 -11 -4 -16 0
-16 11 0 9 -4 13 -10 10 -10 -6 -13 5 -11 35 0 10 -1 11 -5 3 -8 -18 -27 -16
-20 2 3 8 2 14 -2 14 -21 -3 -32 3 -32 18 0 9 -3 14 -6 10 -4 -3 -26 13 -50
35 -37 34 -42 44 -31 56 10 13 9 14 -9 4 -18 -9 -25 -7 -44 13 -20 21 -21 27
-9 42 11 15 11 16 -1 6 -19 -17 -35 -17 -21 0 8 11 6 13 -11 13 -14 -1 -27 8
-35 24 -7 14 -13 21 -13 16 0 -5 -7 -3 -16 5 -8 7 -13 21 -10 31 4 16 2 17
-11 6 -14 -11 -15 -10 -9 12 5 18 4 21 -2 11 -9 -12 -13 -12 -26 2 -12 11 -13
17 -3 20 6 3 3 6 -9 6 -11 1 -35 17 -52 36 -33 35 -41 52 -20 39 7 -4 8 -3 4
4 -4 6 -14 8 -24 5 -15 -6 -15 -5 -3 10 12 15 12 17 -3 11 -18 -7 -49 13 -40
27 3 5 -1 9 -9 9 -8 0 -18 7 -21 16 -3 8 -10 13 -15 10 -5 -3 -15 2 -22 12
-13 16 -13 16 6 2 19 -14 19 -14 6 3 -7 9 -19 17 -26 17 -7 0 -19 8 -26 17 -8
10 -9 14 -2 10 6 -4 15 -3 18 3 4 6 3 10 -2 9 -22 -4 -43 2 -38 11 3 6 -1 10
-10 10 -9 0 -15 7 -13 17 2 12 -4 18 -17 18 -10 0 -24 10 -31 22 -6 13 -13 22
-15 20 -2 -2 -14 7 -26 20 -16 17 -18 23 -8 23 8 0 15 3 15 8 0 9 66 10 75 1z
m2545 -2223 c0 -3 -4 -8 -10 -11 -5 -3 -10 -1 -10 4 0 6 5 11 10 11 6 0 10 -2
10 -4z"/>
<path d="M2770 5759 c0 -5 5 -7 10 -4 6 3 10 8 10 11 0 2 -4 4 -10 4 -5 0 -10
-5 -10 -11z"/>
<path d="M4266 5762 c-3 -5 1 -9 9 -9 8 0 12 4 9 9 -3 4 -7 8 -9 8 -2 0 -6 -4
-9 -8z"/>
<path d="M6813 5746 c3 -7 0 -20 -6 -27 -10 -11 -9 -11 5 0 15 11 15 41 1 41
-3 0 -3 -6 0 -14z"/>
<path d="M6493 5433 c4 -3 1 -13 -6 -22 -11 -14 -10 -14 5 -2 16 12 16 31 1
31 -4 0 -3 -3 0 -7z"/>
<path d="M6454 5391 c8 -12 -19 -33 -29 -23 -5 4 -5 1 -1 -6 6 -11 12 -10 27
4 16 14 18 34 3 34 -3 0 -3 -4 0 -9z"/>
<path d="M6390 5336 c7 -7 13 -7 20 0 6 6 3 10 -10 10 -13 0 -16 -4 -10 -10z"/>
<path d="M6355 5290 c-4 -6 -11 -8 -16 -5 -5 4 -9 1 -9 -4 0 -16 16 -13 30 4
7 8 10 15 7 15 -3 0 -9 -5 -12 -10z"/>
<path d="M3155 5279 c-4 -6 -5 -12 -2 -15 2 -3 7 2 10 11 7 17 1 20 -8 4z"/>
<path d="M3210 5206 c0 -2 8 -10 18 -17 15 -13 16 -12 3 4 -13 16 -21 21 -21
13z"/>
<path d="M3297 5143 c-9 -8 12 -33 27 -33 6 0 3 5 -7 11 -9 6 -15 14 -12 20 7
10 2 12 -8 2z"/>
<path d="M3990 5079 c0 -5 5 -7 10 -4 6 3 10 8 10 11 0 2 -4 4 -10 4 -5 0 -10
-5 -10 -11z"/>
<path d="M3795 4958 l-30 -31 33 22 c17 12 32 27 32 32 0 12 0 12 -35 -23z"/>
<path d="M3467 4959 c7 -7 15 -10 18 -7 3 3 -2 9 -12 12 -14 6 -15 5 -6 -5z"/>
<path d="M3735 4920 c-3 -5 -1 -10 4 -10 6 0 11 5 11 10 0 6 -2 10 -4 10 -3 0
-8 -4 -11 -10z"/>
<path d="M6780 6296 c7 -7 13 -7 20 0 6 6 3 10 -10 10 -13 0 -16 -4 -10 -10z"/>
<path d="M7420 6296 c7 -7 13 -7 20 0 6 6 3 10 -10 10 -13 0 -16 -4 -10 -10z"/>
<path d="M1598 6163 c7 -3 16 -2 19 1 4 3 -2 6 -13 5 -11 0 -14 -3 -6 -6z"/>
<path d="M990 6126 c0 -8 4 -17 9 -20 5 -4 7 3 4 14 -6 23 -13 26 -13 6z"/>
<path d="M1652 6116 c7 -8 15 -12 17 -11 5 6 -10 25 -20 25 -5 0 -4 -6 3 -14z"/>
<path d="M7850 6095 c-7 -9 -11 -17 -9 -20 3 -2 10 5 17 15 14 24 10 26 -8 5z"/>
<path d="M113 5995 c0 -8 4 -12 9 -9 5 3 6 10 3 15 -9 13 -12 11 -12 -6z"/>
<path d="M1150 5881 c0 -6 4 -13 10 -16 6 -3 7 1 4 9 -7 18 -14 21 -14 7z"/>
<path d="M1910 5861 c0 -10 19 -25 25 -20 1 2 -3 10 -11 17 -8 7 -14 8 -14 3z"/>
<path d="M1186 5818 c3 -5 10 -6 15 -3 13 9 11 12 -6 12 -8 0 -12 -4 -9 -9z"/>
<path d="M1211 5794 c0 -11 3 -14 6 -6 3 7 2 16 -1 19 -3 4 -6 -2 -5 -13z"/>
<path d="M1225 5760 c3 -5 8 -10 11 -10 2 0 4 5 4 10 0 6 -5 10 -11 10 -5 0
-7 -4 -4 -10z"/>
<path d="M7396 5638 c3 -5 10 -6 15 -3 13 9 11 12 -6 12 -8 0 -12 -4 -9 -9z"/>
<path d="M690 5421 c0 -6 4 -13 10 -16 6 -3 7 1 4 9 -7 18 -14 21 -14 7z"/>
<path d="M2395 5380 c3 -5 8 -10 11 -10 2 0 4 5 4 10 0 6 -5 10 -11 10 -5 0
-7 -4 -4 -10z"/>
<path d="M976 5318 c3 -5 10 -6 15 -3 13 9 11 12 -6 12 -8 0 -12 -4 -9 -9z"/>
<path d="M1136 5302 c-3 -5 1 -9 9 -9 8 0 12 4 9 9 -3 4 -7 8 -9 8 -2 0 -6 -4
-9 -8z"/>
<path d="M6996 5238 c3 -5 10 -6 15 -3 13 9 11 12 -6 12 -8 0 -12 -4 -9 -9z"/>
<path d="M2715 5060 c3 -5 8 -10 11 -10 2 0 4 5 4 10 0 6 -5 10 -11 10 -5 0
-7 -4 -4 -10z"/>
<path d="M6694 4958 l-19 -23 23 19 c12 11 22 21 22 23 0 8 -8 2 -26 -19z"/>
<path d="M2875 4900 c3 -5 8 -10 11 -10 2 0 4 5 4 10 0 6 -5 10 -11 10 -5 0
-7 -4 -4 -10z"/>
<path d="M6516 4753 c-6 -14 -5 -15 5 -6 7 7 10 15 7 18 -3 3 -9 -2 -12 -12z"/>
<path d="M6374 4638 l-19 -23 23 19 c12 11 22 21 22 23 0 8 -8 2 -26 -19z"/>
<path d="M3195 4580 c3 -5 8 -10 11 -10 2 0 4 5 4 10 0 6 -5 10 -11 10 -5 0
-7 -4 -4 -10z"/>
<path d="M6199 4468 c-5 -18 -6 -38 -1 -34 7 8 12 36 6 36 -2 0 -4 -1 -5 -2z"/>
<path d="M3380 4396 c0 -2 7 -7 16 -10 8 -3 12 -2 9 4 -6 10 -25 14 -25 6z"/>
<path d="M6005 4280 c-3 -6 1 -7 9 -4 18 7 21 14 7 14 -6 0 -13 -4 -16 -10z"/>
<path d="M5970 4239 c0 -5 5 -7 10 -4 6 3 10 8 10 11 0 2 -4 4 -10 4 -5 0 -10
-5 -10 -11z"/>
<path d="M5894 4169 c-3 -6 -2 -15 3 -20 5 -5 9 -1 9 11 0 23 -2 24 -12 9z"/>
<path d="M3630 4146 c0 -2 9 -6 20 -9 11 -3 18 -1 14 4 -5 9 -34 13 -34 5z"/>
<path d="M5830 4099 c0 -5 5 -7 10 -4 6 3 10 8 10 11 0 2 -4 4 -10 4 -5 0 -10
-5 -10 -11z"/>
<path d="M5795 4069 c-4 -6 -5 -12 -2 -15 2 -3 7 2 10 11 7 17 1 20 -8 4z"/>
<path d="M3741 4044 c0 -11 3 -14 6 -6 3 7 2 16 -1 19 -3 4 -6 -2 -5 -13z"/>
<path d="M5749 4023 c-13 -16 -12 -17 4 -4 16 13 21 21 13 21 -2 0 -10 -8 -17
-17z"/>
<path d="M3785 4000 c3 -5 11 -10 16 -10 6 0 7 5 4 10 -3 6 -11 10 -16 10 -6
0 -7 -4 -4 -10z"/>
<path d="M5670 3939 c0 -5 5 -7 10 -4 6 3 10 8 10 11 0 2 -4 4 -10 4 -5 0 -10
-5 -10 -11z"/>
<path d="M5635 3909 c-4 -6 -5 -12 -2 -15 2 -3 7 2 10 11 7 17 1 20 -8 4z"/>
<path d="M3901 3884 c0 -11 3 -14 6 -6 3 7 2 16 -1 19 -3 4 -6 -2 -5 -13z"/>
<path d="M3945 3840 c3 -5 8 -10 11 -10 2 0 4 5 4 10 0 6 -5 10 -11 10 -5 0
-7 -4 -4 -10z"/>
<path d="M5559 3833 c-12 -16 -12 -17 2 -6 9 7 19 10 22 6 4 -3 7 -1 7 5 0 17
-16 15 -31 -5z"/>
<path d="M3977 3809 c4 -13 8 -18 11 -10 2 7 -1 18 -6 23 -8 8 -9 4 -5 -13z"/>
<path d="M5506 3782 c-2 -4 4 -8 14 -8 10 0 16 4 14 8 -3 4 -9 8 -14 8 -5 0
-11 -4 -14 -8z"/>
<path d="M4270 3506 c0 -2 9 -6 20 -9 11 -3 18 -1 14 4 -5 9 -34 13 -34 5z"/>
<path d="M4381 3404 c0 -11 3 -14 6 -6 3 7 2 16 -1 19 -3 4 -6 -2 -5 -13z"/>
<path d="M4477 3309 c7 -7 15 -10 18 -7 3 3 -2 9 -12 12 -14 6 -15 5 -6 -5z"/>
<path d="M5025 3309 c-11 -16 -1 -19 13 -3 7 8 8 14 3 14 -5 0 -13 -5 -16 -11z"/>
<path d="M5096 1198 c3 -5 10 -6 15 -3 13 9 11 12 -6 12 -8 0 -12 -4 -9 -9z"/>
<path d="M4390 1176 c7 -7 13 -7 20 0 6 6 3 10 -10 10 -13 0 -16 -4 -10 -10z"/>
<path d="M4215 1000 c-3 -5 -1 -10 4 -10 6 0 11 5 11 10 0 6 -2 10 -4 10 -3 0
-8 -4 -11 -10z"/>
<path d="M4110 919 c0 -5 5 -7 10 -4 6 3 10 8 10 11 0 2 -4 4 -10 4 -5 0 -10
-5 -10 -11z"/>
<path d="M5430 882 c0 -5 7 -9 15 -9 8 0 12 4 9 9 -3 4 -9 8 -15 8 -5 0 -9 -4
-9 -8z"/>
<path d="M5510 801 c0 -10 19 -25 25 -20 1 2 -3 10 -11 17 -8 7 -14 8 -14 3z"/>
<path d="M3994 778 l-19 -23 23 19 c21 18 27 26 19 26 -2 0 -12 -10 -23 -22z"/>
<path d="M5635 699 c-4 -6 -5 -12 -2 -15 2 -3 7 2 10 11 7 17 1 20 -8 4z"/>
<path d="M3835 651 c-3 -5 -2 -12 3 -15 5 -3 9 1 9 9 0 17 -3 19 -12 6z"/>
<path d="M3613 428 c1 -7 -4 -12 -11 -10 -8 1 -11 -2 -7 -8 5 -8 11 -8 21 1 7
6 11 15 8 20 -8 13 -14 11 -11 -3z"/>
<path d="M5964 362 c23 -26 23 -26 23 -7 0 8 -3 13 -5 10 -3 -3 -12 1 -21 7
-10 8 -9 4 3 -10z"/>
</g>
</svg>
